<svg xmlns="http://www.w3.org/2000/svg" width="356" height="488" viewBox="0 0 356 488" role="img" aria-label="The Crown & The Commoner cover">
  <defs>
    <linearGradient id="bg" x1="0" y1="0" x2="1" y2="1">
      <stop offset="0" stop-color="#ec4899"/>
      <stop offset="0.55" stop-color="#8b5cf6"/>
      <stop offset="1" stop-color="#a78bfa"/>
    </linearGradient>
    <radialGradient id="glow" cx="30%" cy="25%" r="70%">
      <stop offset="0" stop-color="rgba(255,255,255,0.45)"/>
      <stop offset="1" stop-color="rgba(255,255,255,0)"/>
    </radialGradient>
    <filter id="grain" x="-20%" y="-20%" width="140%" height="140%">
      <feTurbulence type="fractalNoise" baseFrequency="0.8" numOctaves="2" stitchTiles="stitch"/>
      <feColorMatrix type="matrix" values="1 0 0 0 0  0 1 0 0 0  0 0 1 0 0  0 0 0 0.06 0"/>
    </filter>
  </defs>

  <rect width="356" height="488" rx="18" fill="url(#bg)"/>
  <rect width="356" height="488" rx="18" fill="url(#glow)"/>
  <rect width="356" height="488" rx="18" filter="url(#grain)" opacity="0.65"/>

  <g opacity="0.85">
    <path d="M70 140c48-54 110-60 172-20 14 9 27 21 39 36-62 2-128 25-178 64-18-30-31-55-33-80z" fill="rgba(0,0,0,0.18)"/>
    <path d="M80 344c56-44 132-56 206-30-10 30-30 56-58 76-62 44-128 50-198 18 13-21 28-42 50-64z" fill="rgba(0,0,0,0.18)"/>
  </g>

  <g fill="rgba(255,255,255,0.92)">
    <text x="32" y="82" font-family="Plus Jakarta Sans, system-ui, sans-serif" font-size="14" font-weight="700" letter-spacing="0.18em" opacity="0.9">NOVELNEST</text>
    <text x="32" y="150" font-family="Plus Jakarta Sans, system-ui, sans-serif" font-size="40" font-weight="800">The Crown</text>
    <text x="32" y="196" font-family="Plus Jakarta Sans, system-ui, sans-serif" font-size="40" font-weight="800">&amp; The Commoner</text>
    <text x="32" y="238" font-family="Plus Jakarta Sans, system-ui, sans-serif" font-size="16" font-weight="600" opacity="0.9">Royal romance " slow burn</text>
  </g>

  <g transform="translate(34 292)">
    <path d="M42 50c7-24 14-35 22-35 8 0 15 11 22 35-15-7-27-7-44 0z" fill="rgba(255,255,255,0.92)"/>
    <path d="M10 48c7-18 16-27 26-27s19 9 26 27c-13-5-25-5-52 0z" fill="rgba(255,255,255,0.35)"/>
    <path d="M74 48c7-18 16-27 26-27s19 9 26 27c-13-5-25-5-52 0z" fill="rgba(255,255,255,0.35)"/>
    <rect x="8" y="50" width="132" height="10" rx="5" fill="rgba(255,255,255,0.28)"/>
  </g>

  <g fill="rgba(255,255,255,0.85)">
    <text x="32" y="446" font-family="Plus Jakarta Sans, system-ui, sans-serif" font-size="14" font-weight="600" opacity="0.9">by S. Lark</text>
  </g>
</svg>
