<svg xmlns="http://www.w3.org/2000/svg" width="356" height="488" viewBox="0 0 356 488" role="img" aria-label="The Quiet Spellbook cover">
  <defs>
    <linearGradient id="bg2" x1="0" y1="0" x2="1" y2="1">
      <stop offset="0" stop-color="#0ea5e9"/>
      <stop offset="0.55" stop-color="#8b5cf6"/>
      <stop offset="1" stop-color="#34d399"/>
    </linearGradient>
    <radialGradient id="glow2" cx="70%" cy="20%" r="70%">
      <stop offset="0" stop-color="rgba(255,255,255,0.42)"/>
      <stop offset="1" stop-color="rgba(255,255,255,0)"/>
    </radialGradient>
    <filter id="grain2" x="-20%" y="-20%" width="140%" height="140%">
      <feTurbulence type="fractalNoise" baseFrequency="0.7" numOctaves="2" stitchTiles="stitch"/>
      <feColorMatrix type="matrix" values="1 0 0 0 0  0 1 0 0 0  0 0 1 0 0  0 0 0 0.06 0"/>
    </filter>
  </defs>

  <rect width="356" height="488" rx="18" fill="url(#bg2)"/>
  <rect width="356" height="488" rx="18" fill="url(#glow2)"/>
  <rect width="356" height="488" rx="18" filter="url(#grain2)" opacity="0.65"/>

  <g opacity="0.9">
    <circle cx="268" cy="146" r="68" fill="rgba(255,255,255,0.12)"/>
    <circle cx="268" cy="146" r="42" fill="rgba(255,255,255,0.10)"/>
    <path d="M82 320c38-52 92-86 160-96 14 26 21 55 21 86 0 68-34 122-102 162-44-26-72-70-79-132z" fill="rgba(0,0,0,0.18)"/>
  </g>

  <g fill="rgba(255,255,255,0.92)">
    <text x="32" y="82" font-family="Plus Jakarta Sans, system-ui, sans-serif" font-size="14" font-weight="700" letter-spacing="0.18em" opacity="0.9">NOVELNEST</text>
    <text x="32" y="152" font-family="Plus Jakarta Sans, system-ui, sans-serif" font-size="42" font-weight="800">The Quiet</text>
    <text x="32" y="200" font-family="Plus Jakarta Sans, system-ui, sans-serif" font-size="42" font-weight="800">Spellbook</text>
    <text x="32" y="242" font-family="Plus Jakarta Sans, system-ui, sans-serif" font-size="16" font-weight="600" opacity="0.9">Cozy fantasy " found family</text>
  </g>

  <g transform="translate(42 290)" fill="rgba(255,255,255,0.28)">
    <rect x="0" y="0" width="120" height="150" rx="14"/>
    <path d="M14 22h90" stroke="rgba(255,255,255,0.55)" stroke-width="3" stroke-linecap="round"/>
    <path d="M14 44h72" stroke="rgba(255,255,255,0.45)" stroke-width="3" stroke-linecap="round"/>
    <path d="M14 66h84" stroke="rgba(255,255,255,0.45)" stroke-width="3" stroke-linecap="round"/>
    <path d="M14 88h64" stroke="rgba(255,255,255,0.45)" stroke-width="3" stroke-linecap="round"/>
    <path d="M14 110h78" stroke="rgba(255,255,255,0.45)" stroke-width="3" stroke-linecap="round"/>
  </g>

  <g fill="rgba(255,255,255,0.85)">
    <text x="32" y="446" font-family="Plus Jakarta Sans, system-ui, sans-serif" font-size="14" font-weight="600" opacity="0.9">by Mina Rowe</text>
  </g>
</svg>
