<svg xmlns="http://www.w3.org/2000/svg" width="356" height="488" viewBox="0 0 356 488" role="img" aria-label="Midnight on Harbor Street cover">
  <defs>
    <linearGradient id="bg3" x1="0" y1="0" x2="1" y2="1">
      <stop offset="0" stop-color="#111827"/>
      <stop offset="0.45" stop-color="#8b5cf6"/>
      <stop offset="1" stop-color="#f59e0b"/>
    </linearGradient>
    <radialGradient id="glow3" cx="35%" cy="20%" r="75%">
      <stop offset="0" stop-color="rgba(255,255,255,0.35)"/>
      <stop offset="1" stop-color="rgba(255,255,255,0)"/>
    </radialGradient>
    <filter id="grain3" x="-20%" y="-20%" width="140%" height="140%">
      <feTurbulence type="fractalNoise" baseFrequency="0.75" numOctaves="2" stitchTiles="stitch"/>
      <feColorMatrix type="matrix" values="1 0 0 0 0  0 1 0 0 0  0 0 1 0 0  0 0 0 0.06 0"/>
    </filter>
  </defs>

  <rect width="356" height="488" rx="18" fill="url(#bg3)"/>
  <rect width="356" height="488" rx="18" fill="url(#glow3)"/>
  <rect width="356" height="488" rx="18" filter="url(#grain3)" opacity="0.65"/>

  <g opacity="0.9">
    <path d="M0 360c62-44 130-66 206-66 58 0 108 12 150 34v160H0V360z" fill="rgba(0,0,0,0.22)"/>
    <path d="M30 352c12 10 26 16 42 16 22 0 40-10 54-30 16 22 36 32 62 32 30 0 56-14 78-42 12 18 28 28 48 30 16 1 30-4 42-14" fill="none" stroke="rgba(255,255,255,0.22)" stroke-width="6" stroke-linecap="round"/>
    <circle cx="276" cy="132" r="42" fill="rgba(255,255,255,0.10)"/>
  </g>

  <g fill="rgba(255,255,255,0.92)">
    <text x="32" y="82" font-family="Plus Jakarta Sans, system-ui, sans-serif" font-size="14" font-weight="700" letter-spacing="0.18em" opacity="0.9">NOVELNEST</text>
    <text x="32" y="148" font-family="Plus Jakarta Sans, system-ui, sans-serif" font-size="38" font-weight="850">Midnight</text>
    <text x="32" y="194" font-family="Plus Jakarta Sans, system-ui, sans-serif" font-size="38" font-weight="850">on Harbor Street</text>
    <text x="32" y="238" font-family="Plus Jakarta Sans, system-ui, sans-serif" font-size="16" font-weight="600" opacity="0.9">Mystery " small-town secrets</text>
  </g>

  <g fill="rgba(255,255,255,0.85)">
    <text x="32" y="446" font-family="Plus Jakarta Sans, system-ui, sans-serif" font-size="14" font-weight="600" opacity="0.9">by A. North</text>
  </g>
</svg>
